<?xml version="1.0" standalone="no"?>
<!DOCTYPE svg PUBLIC "-//W3C//DTD SVG 20010904//EN"
 "http://www.w3.org/TR/2001/REC-SVG-20010904/DTD/svg10.dtd">
<svg version="1.0" xmlns="http://www.w3.org/2000/svg"
 width="3508.000000pt" height="2481.000000pt" viewBox="0 0 3508.000000 2481.000000"
 preserveAspectRatio="xMidYMid meet">

<g transform="translate(0.000000,2481.000000) scale(0.100000,-0.100000)"
fill="#000000" stroke="none">
<path d="M17486 24311 l-30 -31 869 -872 c478 -480 985 -990 1127 -1133 l258
-260 29 30 29 30 -1126 1133 -1127 1134 -29 -31z"/>
<path d="M17236 24061 l-27 -28 153 -150 c84 -82 549 -531 1033 -998 484 -466
933 -900 997 -964 l118 -116 31 31 31 31 -1151 1112 c-632 611 -1152 1111
-1154 1111 -2 0 -16 -13 -31 -29z"/>
<path d="M16986 23801 l-29 -30 63 -58 c35 -32 563 -520 1174 -1085 l1111
-1028 31 31 32 31 -191 178 c-856 793 -2153 1990 -2158 1990 -3 0 -18 -13 -33
-29z"/>
<path d="M16725 23540 c-17 -18 -25 -34 -19 -39 5 -4 536 -473 1179 -1041 644
-568 1179 -1041 1191 -1051 20 -19 21 -18 52 14 l32 33 -1191 1052 c-654 579
-1196 1055 -1203 1058 -6 2 -25 -9 -41 -26z"/>
<path d="M16469 23274 l-34 -35 25 -21 c14 -11 562 -473 1218 -1027 657 -553
1199 -1007 1206 -1009 6 -1 25 11 41 28 25 26 27 32 15 44 -8 7 -532 449
-1165 981 -632 533 -1177 992 -1211 1022 l-61 52 -34 -35z"/>
<path d="M16197 23002 c-15 -15 -27 -31 -27 -35 0 -4 2260 -1821 2488 -2000
10 -8 22 -1 48 24 l34 35 -1246 999 c-685 550 -1251 1001 -1258 1003 -6 1 -24
-10 -39 -26z"/>
<path d="M15921 22716 l-32 -33 1282 -975 1282 -975 33 36 c31 34 32 37 16 52
-29 28 -2533 1929 -2541 1929 -4 0 -22 -15 -40 -34z"/>
<path d="M15640 22435 c-30 -31 -32 -37 -20 -49 19 -18 2591 -1867 2605 -1872
16 -6 81 64 69 75 -11 11 -2614 1881 -2618 1881 -1 0 -17 -16 -36 -35z"/>
<path d="M15350 22135 c-21 -22 -30 -39 -24 -44 12 -13 2656 -1802 2669 -1807
6 -3 27 13 47 33 l37 38 -1336 905 c-735 498 -1342 906 -1348 908 -6 1 -26
-13 -45 -33z"/>
<path d="M18855 20770 c-589 -633 -1079 -1162 -1090 -1176 l-19 -25 116 -115
115 -116 1044 1123 c574 618 1065 1147 1091 1175 l47 50 -117 117 -117 117
-1070 -1150z"/>
<path d="M15047 21832 l-37 -38 1382 -878 1381 -877 40 39 39 40 -43 29 c-86
58 -2695 1712 -2710 1718 -9 3 -29 -10 -52 -33z"/>
<path d="M14745 21520 c-21 -22 -36 -42 -33 -45 3 -4 639 -382 1414 -841
l1408 -834 38 37 c21 20 37 41 36 45 -2 6 -2815 1678 -2822 1678 -1 0 -19 -18
-41 -40z"/>
<path d="M19218 20352 l-1106 -1147 111 -113 c62 -61 115 -111 119 -110 5 2
505 518 1112 1148 l1104 1144 -105 111 c-58 60 -111 111 -117 112 -6 1 -509
-514 -1118 -1145z"/>
<path d="M14422 21197 l-42 -42 1458 -803 1457 -802 37 43 c21 23 37 44 37 47
0 4 -2870 1586 -2898 1598 -4 1 -26 -17 -49 -41z"/>
<path d="M20300 20647 c-245 -244 -755 -750 -1134 -1125 l-688 -682 108 -114
109 -114 395 392 c217 216 729 723 1137 1127 l742 735 -112 112 -112 112 -445
-443z"/>
<path d="M14095 20860 c-21 -22 -37 -42 -34 -44 3 -3 675 -345 1494 -761
l1489 -756 43 43 c23 23 40 45 35 49 -12 11 -2968 1509 -2978 1509 -6 0 -27
-18 -49 -40z"/>
<path d="M19998 19572 l-1167 -1097 107 -108 c59 -59 110 -106 113 -105 17 7
2320 2181 2317 2188 -2 4 -48 55 -103 113 l-101 106 -1166 -1097z"/>
<path d="M13764 20510 c-21 -29 -101 -111 -178 -182 -78 -72 -142 -134 -144
-139 -2 -4 12 -34 31 -66 18 -32 32 -63 31 -68 -2 -6 677 -297 1509 -647
l1512 -637 48 47 c46 46 47 47 25 58 -13 6 -700 296 -1528 644 -828 349 -1507
635 -1509 636 -4 4 140 259 161 286 12 15 154 -49 1538 -692 l1525 -709 45 44
c24 24 42 46 40 49 -4 3 -3010 1403 -3057 1423 -6 2 -29 -19 -49 -47z"/>
<path d="M20385 19185 c-654 -580 -1191 -1058 -1193 -1063 -1 -4 44 -54 101
-110 l104 -104 1194 1058 c657 581 1196 1059 1198 1061 5 4 -200 213 -209 213
-3 0 -540 -475 -1195 -1055z"/>
<path d="M13078 19823 l-117 -118 111 -158 c61 -87 114 -155 118 -150 4 4 27
54 51 111 23 56 48 102 53 102 6 0 674 -250 1484 -557 l1473 -556 50 49 50 50
-1503 568 -1503 568 -70 104 c-38 57 -72 104 -75 104 -3 0 -58 -53 -122 -117z"/>
<path d="M20969 18962 c-570 -471 -1126 -931 -1236 -1022 l-200 -166 102 -105
102 -105 1232 1019 c678 560 1231 1022 1229 1026 -2 5 -46 53 -98 109 l-95
100 -1036 -856z"/>
<path d="M12618 19353 l-116 -118 218 -260 c121 -143 227 -263 237 -267 24
-10 2670 -778 2703 -784 20 -4 35 5 74 45 28 28 48 52 45 55 -2 2 -629 185
-1394 407 -764 221 -1391 403 -1392 404 -2 1 15 55 37 120 34 100 38 121 27
134 -8 9 -83 98 -167 199 -84 100 -153 182 -154 182 -1 0 -54 -53 -118 -117z"/>
<path d="M21244 18482 c-645 -493 -1218 -932 -1274 -976 l-102 -78 98 -99 c54
-55 104 -97 110 -95 7 3 584 442 1284 977 l1272 972 -99 99 c-53 54 -102 98
-108 97 -5 0 -537 -404 -1181 -897z"/>
<path d="M13130 19234 c-13 -31 -19 -59 -14 -63 5 -5 650 -223 1433 -485
l1425 -477 50 50 c28 28 48 52 46 55 -4 4 -2908 976 -2915 976 -2 0 -13 -25
-25 -56z"/>
<path d="M12172 18888 l-111 -123 357 -357 c196 -197 359 -358 362 -358 3 0
14 41 24 90 13 67 22 90 34 90 8 0 584 -140 1280 -311 l1264 -312 56 56 c39
40 52 58 41 61 -7 3 -583 145 -1279 316 -696 171 -1282 315 -1303 321 -35 9
-38 13 -32 37 5 25 -20 53 -288 320 l-294 294 -111 -124z"/>
<path d="M21540 18029 c-718 -501 -1312 -917 -1320 -925 -13 -12 -2 -26 80
-109 52 -52 98 -95 102 -95 12 0 2622 1826 2625 1837 4 11 -162 203 -175 203
-4 0 -594 -410 -1312 -911z"/>
<path d="M11767 18389 c-69 -93 -95 -135 -88 -143 6 -7 233 -199 506 -427
l495 -414 -6 -62 c-4 -35 -5 -63 -3 -64 2 0 468 -74 1034 -163 l1030 -163 62
60 c34 34 61 62 60 64 -3 2 -2157 343 -2170 343 -4 0 17 173 34 273 9 55 14
67 27 63 10 -3 534 -109 1166 -236 l1149 -232 58 58 c32 32 57 59 56 60 -2 3
-2372 482 -2407 487 -10 1 -17 -14 -25 -51 l-10 -53 -420 352 c-231 193 -427
358 -436 365 -13 12 -27 -2 -112 -117z"/>
<path d="M21883 17617 c-744 -469 -1352 -855 -1353 -858 0 -4 26 -38 58 -75
31 -38 68 -84 82 -102 l26 -33 1352 852 c744 468 1352 855 1352 860 0 15 -144
208 -155 208 -5 0 -618 -384 -1362 -852z"/>
<path d="M11449 17923 c-23 -38 -62 -100 -85 -140 l-43 -71 626 -439 c345
-241 638 -446 652 -455 20 -13 226 -39 925 -118 494 -56 902 -98 905 -93 4 4
28 34 55 66 26 31 46 58 44 58 -2 1 -426 49 -943 108 l-940 107 1 34 c0 19 3
73 5 119 l4 84 -575 403 c-316 222 -578 404 -582 404 -3 0 -25 -30 -49 -67z"/>
<path d="M22194 17183 l-1392 -776 70 -106 c39 -58 71 -107 73 -109 2 -2 2771
1537 2792 1552 6 4 -131 216 -140 216 -7 -1 -638 -350 -1403 -777z"/>
<path d="M11100 17295 c-39 -81 -70 -148 -68 -150 4 -4 1599 -925 1602 -925 2
0 1 25 -2 55 l-4 54 68 -6 c38 -3 382 -26 765 -52 l696 -46 46 69 c25 39 45
71 44 72 -1 1 -351 25 -777 53 -426 29 -790 54 -807 57 l-33 5 0 62 0 62 -720
415 c-396 228 -725 416 -730 418 -5 2 -41 -63 -80 -143z"/>
<path d="M22468 16733 l-1436 -695 56 -109 c32 -60 60 -109 65 -109 9 0 2849
1370 2861 1381 8 7 -69 177 -96 210 -12 15 -160 -55 -1450 -678z"/>
<path d="M10846 16718 c-31 -83 -54 -154 -49 -159 6 -6 1870 -879 1877 -879 1
0 -1 26 -5 58 -4 31 -8 72 -8 91 l-1 34 338 -6 c185 -4 474 -10 642 -13 l305
-7 37 77 38 76 -123 0 c-353 2 -1241 28 -1244 37 -2 6 -9 17 -16 25 -9 12
-1520 724 -1703 803 l-30 14 -58 -151z"/>
<path d="M22688 16261 c-807 -328 -1468 -600 -1468 -605 0 -5 19 -57 41 -116
l42 -108 226 93 c124 50 790 320 1479 600 688 280 1252 512 1252 517 0 23 -83
218 -93 217 -7 -1 -672 -270 -1479 -598z"/>
<path d="M10687 16263 c-8 -14 -89 -305 -85 -307 6 -4 2133 -776 2139 -776 3
0 -3 52 -13 116 -11 64 -18 117 -16 119 2 1 242 8 533 14 292 7 533 15 536 19
3 4 18 40 32 80 l27 73 -158 -6 c-86 -3 -344 -10 -571 -15 -247 -6 -417 -14
-421 -20 -3 -6 -429 144 -995 350 -545 198 -993 360 -997 360 -4 0 -9 -3 -11
-7z"/>
<path d="M22866 15775 c-830 -272 -1510 -496 -1511 -497 -7 -10 60 -228 69
-225 6 2 689 226 1519 497 1158 379 1507 497 1507 509 0 28 -57 205 -66 208
-5 1 -688 -220 -1518 -492z"/>
<path d="M10526 15652 c-10 -32 -56 -276 -56 -294 0 -10 2 -18 5 -18 17 0
2361 -632 2367 -638 4 -4 11 -22 14 -40 5 -24 3 -32 -7 -32 -8 0 -555 95
-1217 211 -661 117 -1204 210 -1207 207 -6 -5 -35 -250 -35 -293 l0 -31 1286
-227 c708 -124 1288 -228 1290 -229 1 -2 5 -15 9 -31 6 -24 4 -27 -16 -27 -13
1 -600 52 -1304 113 l-1280 113 -7 -51 c-3 -27 -6 -102 -7 -165 l-1 -115 1371
-120 c1316 -115 1371 -120 1382 -140 12 -21 12 -21 229 24 l218 46 0 87 c0 66
-3 86 -12 83 -7 -3 -120 -27 -250 -54 l-237 -48 -31 91 c-16 50 -30 96 -30
102 0 7 102 28 270 55 149 24 275 46 280 49 4 3 11 41 15 86 l7 81 -293 -48
c-162 -27 -304 -49 -315 -49 -19 0 -25 14 -52 108 -16 59 -27 110 -23 113 3 3
157 23 341 43 184 20 342 41 350 45 13 7 44 149 35 159 -2 2 -176 -17 -387
-41 -210 -25 -384 -44 -386 -42 -5 5 -52 216 -52 234 0 15 46 20 418 44 229
16 426 30 437 32 17 3 25 20 40 80 10 41 16 77 14 79 -3 2 -890 -58 -938 -64
-2 0 -1 -16 1 -35 3 -28 1 -34 -12 -31 -11 4 -1528 409 -2187 586 -26 7 -33 5
-37 -8z"/>
<path d="M22995 15278 c-847 -209 -1541 -381 -1543 -383 -3 -3 29 -216 33
-223 2 -2 3076 753 3101 762 14 5 -26 218 -41 222 -6 1 -703 -168 -1550 -378z"/>
<path d="M23080 14775 c-844 -140 -1544 -255 -1555 -257 -18 -3 -19 -10 -16
-78 1 -41 6 -91 9 -110 l7 -36 1535 252 c844 139 1555 255 1579 259 l44 7 -7
86 c-10 119 -14 132 -40 131 -11 -1 -712 -115 -1556 -254z"/>
<path d="M23115 14264 c-836 -68 -1537 -123 -1557 -123 l-38 -1 0 -111 0 -111
38 6 c20 3 726 60 1567 126 842 66 1545 123 1563 126 32 5 32 5 32 63 0 32 -3
79 -6 105 -7 45 -7 46 -43 45 -20 -1 -720 -57 -1556 -125z"/>
<path d="M10374 13698 c4 -68 9 -142 12 -165 l6 -43 1442 0 1441 0 155 40 c85
23 156 43 158 45 9 9 -11 165 -21 165 -6 0 -89 -20 -185 -46 -95 -25 -179 -43
-185 -41 -6 2 -26 39 -43 83 l-32 79 -1377 3 -1378 2 7 -122z"/>
<path d="M21493 13658 c-6 -57 -10 -104 -9 -105 0 -1 723 -5 1605 -10 1068 -5
1605 -5 1606 2 2 6 6 51 9 101 l6 92 -848 6 c-466 3 -1187 8 -1602 11 l-756 5
-11 -102z"/>
<path d="M11835 13333 c-775 -69 -1411 -126 -1413 -128 -5 -5 40 -302 47 -314
4 -7 491 32 1436 114 787 69 1449 127 1473 131 37 5 41 8 32 23 -8 16 3 22
112 55 67 20 123 38 126 40 4 5 -26 157 -32 164 -3 2 -65 -15 -138 -37 -74
-23 -139 -41 -144 -41 -6 0 -23 27 -39 60 -16 33 -33 59 -39 59 -6 -1 -645
-58 -1421 -126z"/>
<path d="M21433 13283 c-11 -54 -20 -99 -19 -100 6 -7 3191 -292 3196 -286 12
13 32 175 23 183 -4 3 -710 71 -1568 149 -858 78 -1572 144 -1586 147 -25 5
-26 3 -46 -93z"/>
<path d="M11970 12863 c-795 -141 -1446 -257 -1447 -257 -1 -1 15 -71 35 -156
28 -114 42 -156 53 -158 13 -2 2665 460 2921 509 l57 11 -19 39 c-11 21 -20
40 -20 42 0 2 41 16 90 32 50 16 89 34 88 39 -2 6 -12 44 -23 84 -11 40 -25
72 -32 72 -7 0 -56 -16 -109 -35 -54 -19 -99 -34 -100 -32 -1 1 -9 17 -18 35
-9 17 -20 32 -24 31 -4 0 -657 -116 -1452 -256z"/>
<path d="M21356 12978 c-2 -7 -16 -48 -29 -90 l-26 -78 22 -5 c12 -3 724 -131
1582 -285 1008 -180 1562 -276 1566 -269 9 15 43 168 38 173 -2 2 -699 128
-1549 280 -850 152 -1557 279 -1573 282 -18 4 -28 1 -31 -8z"/>
<path d="M13685 12824 c-33 -14 -76 -27 -95 -29 -42 -4 -2898 -770 -2907 -779
-10 -9 87 -297 101 -302 7 -3 669 171 1471 386 802 214 1460 389 1461 387 2
-2 -632 -234 -1409 -517 -776 -282 -1416 -517 -1421 -521 -4 -4 20 -73 54
-154 56 -130 65 -146 84 -142 11 2 653 234 1425 516 772 281 1405 510 1406
509 2 -2 -610 -288 -1358 -637 -749 -349 -1364 -636 -1367 -639 -6 -5 130
-270 145 -282 7 -6 539 237 1360 620 742 346 1350 628 1352 627 1 -2 -568
-333 -1265 -735 -698 -403 -1277 -738 -1287 -746 -18 -13 -15 -20 56 -130 40
-64 81 -125 89 -136 15 -20 49 -1 1265 701 688 396 1266 730 1285 741 100 59
-93 -78 -1180 -837 -652 -455 -1189 -832 -1194 -836 -8 -7 41 -76 181 -255 9
-13 193 112 1165 792 634 444 1174 822 1201 841 26 19 47 32 47 29 0 -3 -489
-415 -1087 -917 -599 -501 -1101 -924 -1116 -938 l-28 -27 106 -117 c58 -64
110 -117 115 -117 6 0 502 412 1102 916 601 504 1104 926 1118 937 14 12 -438
-444 -1005 -1012 l-1030 -1032 120 -115 119 -115 1040 1038 c572 571 1017
1011 989 978 -27 -33 -449 -536 -937 -1118 -488 -582 -886 -1062 -884 -1067 3
-10 239 -200 248 -200 3 0 421 495 929 1100 507 605 925 1100 928 1100 2 0
-11 -21 -30 -47 -24 -34 -1213 -1733 -1598 -2284 l-18 -25 82 -56 c45 -30 107
-71 138 -91 l57 -36 822 1174 c452 646 824 1175 827 1175 3 0 -1 -10 -9 -22
-25 -39 -1408 -2437 -1413 -2450 -4 -9 43 -40 131 -88 74 -41 139 -76 144 -78
4 -2 328 553 721 1232 392 680 714 1234 716 1233 1 -2 -268 -583 -598 -1291
-331 -708 -597 -1291 -592 -1295 22 -20 286 -132 293 -124 4 4 279 592 611
1305 332 713 605 1296 606 1295 1 -1 -219 -607 -488 -1347 -269 -740 -487
-1350 -485 -1355 2 -6 71 -33 153 -62 l150 -51 484 1330 c266 731 485 1326
486 1321 2 -4 -161 -618 -361 -1363 -200 -745 -361 -1358 -357 -1362 3 -4 75
-25 158 -47 l153 -39 10 36 c6 20 170 629 363 1353 l353 1315 -33 185 c-17
101 -34 198 -38 215 -4 24 -12 33 -30 36 -14 3 -25 3 -25 0 0 -3 16 -94 35
-203 19 -110 35 -201 35 -204 0 -8 -27 7 -196 107 l-151 90 -17 156 c-15 145
-22 171 -48 172 -11 0 -9 -35 6 -170 7 -63 11 -117 9 -119 -3 -4 -257 165
-312 208 -22 17 -24 28 -29 120 -3 76 -8 101 -18 101 -11 0 -14 -20 -14 -85 0
-47 -2 -85 -5 -85 -12 0 -256 189 -395 306 -403 337 -803 751 -1119 1158 -86
109 -107 146 -161 269 -35 78 -77 174 -94 213 l-32 72 -39 -20 -39 -20 -18 22
c-10 12 -18 25 -18 29 0 3 20 14 44 24 l44 18 -35 82 c-20 45 -37 83 -38 85
-2 2 -26 -8 -54 -22 -28 -14 -54 -26 -58 -26 -9 0 -43 56 -43 70 0 4 26 18 58
31 31 12 59 24 60 25 8 6 -54 164 -63 164 -5 -1 -37 -12 -70 -26z"/>
<path d="M21207 12568 c-36 -83 -36 -83 -14 -89 12 -3 712 -188 1555 -410
1065 -280 1535 -400 1540 -392 15 23 56 153 50 158 -5 5 -3071 815 -3087 815
-5 0 -25 -37 -44 -82z"/>
<path d="M21080 12301 l-39 -79 57 -20 c130 -47 2975 -1022 2983 -1022 8 0 56
99 65 136 5 20 -3 25 -98 57 -110 37 -2774 952 -2871 986 l-57 20 -40 -78z"/>
<path d="M20931 12035 c-24 -37 -39 -71 -34 -75 8 -8 2929 -1250 2947 -1253 5
-1 26 31 48 70 l40 73 -24 9 c-13 5 -671 284 -1463 621 -792 337 -1447 614
-1456 617 -11 3 -29 -15 -58 -62z"/>
<path d="M20755 11773 c-26 -35 -46 -65 -44 -67 9 -8 2862 -1456 2868 -1456 8
0 81 114 81 126 0 8 -687 359 -2521 1290 l-337 171 -47 -64z"/>
<path d="M20555 11524 c-27 -31 -44 -59 -39 -64 5 -5 628 -378 1384 -830
l1375 -821 32 38 c36 42 59 81 52 87 -6 6 -2697 1614 -2730 1631 -25 14 -28
12 -74 -41z"/>
<path d="M20327 11282 l-48 -49 1322 -914 c727 -503 1328 -915 1334 -917 17
-4 100 97 89 108 -21 20 -2620 1813 -2634 1817 -8 2 -36 -17 -63 -45z"/>
<path d="M20089 11064 c-24 -20 -45 -39 -47 -43 -2 -7 316 -260 1934 -1544
l361 -286 69 20 c38 12 72 24 76 27 6 7 -2315 1854 -2337 1860 -7 2 -32 -14
-56 -34z"/>
<path d="M19818 10858 c-26 -18 -47 -35 -47 -38 1 -5 1846 -1677 1919 -1739
39 -33 43 -34 88 -24 l47 9 197 -195 197 -195 77 70 c43 38 98 88 123 111 l46
42 -129 129 -129 130 -61 -18 c-33 -9 -107 -27 -162 -40 l-101 -23 -997 904
c-549 497 -1003 905 -1009 907 -7 1 -33 -12 -59 -30z"/>
<path d="M19540 10680 c-25 -16 -45 -33 -45 -38 0 -5 367 -388 815 -851 l815
-841 35 5 35 5 270 -324 c149 -179 275 -325 280 -325 9 -1 142 96 232 169 l31
25 -215 256 -214 255 -107 -17 c-59 -9 -128 -20 -153 -23 l-45 -7 -843 871
c-464 478 -844 870 -845 869 0 0 -21 -13 -46 -29z"/>
<path d="M19233 10517 c-24 -11 -43 -24 -43 -27 0 -3 300 -359 666 -791 596
-701 670 -784 698 -787 29 -3 55 -37 359 -473 211 -300 333 -467 340 -462 29
17 262 165 265 168 2 2 -119 180 -270 395 l-273 392 -110 -7 c-60 -3 -128 -8
-150 -11 l-40 -5 -693 815 c-381 449 -696 816 -700 815 -4 0 -26 -10 -49 -22z"/>
<path d="M18907 10383 c-21 -9 -36 -19 -35 -23 2 -3 244 -331 538 -727 500
-674 537 -722 570 -728 34 -6 41 -17 383 -611 192 -332 354 -604 359 -604 16
0 288 144 285 151 -1 3 -139 242 -306 532 l-305 527 -155 0 -156 1 -555 749
c-317 427 -561 749 -570 749 -8 -1 -32 -8 -53 -16z"/>
<path d="M18578 10277 l-38 -12 423 -655 423 -655 44 -11 45 -11 347 -744
c226 -484 352 -743 360 -741 29 8 257 104 273 116 15 11 -13 76 -293 677
l-309 664 -69 7 c-38 4 -114 11 -169 15 l-100 8 -435 675 c-240 371 -443 676
-451 677 -8 1 -31 -4 -51 -10z"/>
<path d="M16813 10196 c2 -6 32 -127 67 -270 39 -161 59 -261 53 -265 -9 -5
-248 -2660 -240 -2667 3 -3 321 -33 324 -30 2 2 223 2514 223 2538 0 9 -42 33
-112 65 l-113 49 -71 289 -71 290 -32 6 c-22 5 -31 3 -28 -5z"/>
<path d="M18238 10203 c-16 -2 -28 -7 -28 -11 0 -4 144 -266 320 -582 175
-316 315 -576 311 -578 -5 -2 -82 13 -172 32 -90 20 -164 34 -166 32 -3 -3
526 -1988 532 -1994 7 -8 315 73 315 83 0 9 -459 1735 -486 1826 -4 15 1 16
41 7 26 -6 48 -8 51 -6 2 3 -144 272 -326 599 -234 422 -335 594 -347 595 -10
1 -30 -1 -45 -3z"/>
<path d="M17272 9815 c61 -190 108 -348 105 -351 -2 -2 -25 4 -51 15 l-46 20
0 -1273 0 -1274 133 -7 c72 -4 146 -5 162 -3 l30 3 3 1212 2 1211 -70 27 c-39
15 -74 34 -79 43 -4 10 -56 172 -116 362 -59 190 -109 346 -109 347 -1 0 -17
4 -37 8 l-37 7 110 -347z"/>
<path d="M17875 10147 c-3 -6 98 -231 225 -500 126 -268 230 -491 230 -496 0
-5 -60 8 -132 29 -73 20 -134 37 -135 36 -3 -2 386 -2209 390 -2213 4 -3 318
44 322 49 1 2 -79 467 -179 1033 -126 709 -179 1032 -171 1035 7 3 -83 204
-233 523 l-245 517 -34 0 c-18 0 -36 -6 -38 -13z"/>
<path d="M17520 10133 c0 -4 73 -195 163 -423 90 -228 160 -416 157 -418 -4
-1 -46 11 -94 28 -49 17 -89 30 -90 28 -3 -4 206 -2392 209 -2396 3 -4 319 19
324 24 2 2 -41 512 -95 1133 l-99 1130 -27 6 c-29 7 -9 -39 -285 665 l-89 225
-37 3 c-20 2 -37 0 -37 -5z"/>
<path d="M16356 8478 c-131 -744 -239 -1362 -240 -1373 -1 -18 15 -22 157 -49
87 -16 159 -27 161 -25 6 6 469 2640 465 2643 -3 3 -270 139 -299 154 -3 1
-113 -606 -244 -1350z"/>
<path d="M22671 9297 l-175 -61 40 -34 c21 -19 59 -50 83 -70 l44 -37 113 119
c90 94 112 122 103 133 -6 7 -17 12 -23 12 -6 -1 -89 -29 -185 -62z"/>
<path d="M18970 9002 c0 -10 633 -1739 639 -1745 8 -8 287 77 304 92 6 6 -548
1550 -571 1590 -6 10 -64 23 -190 40 -100 15 -182 25 -182 23z"/>
<path d="M9970 2443 l0 -1813 235 0 235 0 0 1230 c0 677 4 1230 8 1230 5 0
576 -579 1269 -1287 693 -709 1270 -1297 1282 -1307 l21 -19 0 1816 0 1817
-240 0 -240 0 -2 -1247 -3 -1247 -1169 1205 c-643 662 -1221 1256 -1283 1319
l-113 115 0 -1812z"/>
<path d="M22290 2442 l0 -1812 240 0 240 0 2 1232 3 1232 1144 -1170 c629
-643 1206 -1232 1282 -1309 l139 -140 0 1818 0 1817 -240 0 -240 0 -2 -1246
-3 -1245 -1251 1288 c-689 708 -1266 1301 -1283 1317 l-31 30 0 -1812z"/>
<path d="M1959 4205 c-435 -60 -829 -263 -1135 -588 -313 -330 -471 -703 -490
-1157 -24 -535 173 -1017 573 -1400 413 -396 932 -580 1523 -540 299 20 524
76 773 193 l107 50 0 273 c0 151 -3 274 -6 274 -4 0 -30 -13 -58 -30 -151 -86
-413 -185 -601 -226 -208 -47 -498 -43 -720 8 -563 130 -979 550 -1069 1081
-22 125 -22 351 -1 472 48 274 170 504 375 705 477 468 1187 541 1940 201 63
-29 121 -55 128 -58 9 -4 12 53 12 265 l0 271 -107 41 c-210 81 -427 138 -633
166 -131 17 -480 17 -611 -1z"/>
<path d="M6336 4209 c-442 -60 -847 -254 -1150 -548 -571 -557 -717 -1379
-369 -2076 191 -382 468 -657 859 -853 574 -287 1259 -290 1840 -8 309 151
574 377 751 641 324 485 400 1055 212 1592 -43 122 -157 340 -237 453 -83 117
-288 326 -402 410 -256 188 -549 313 -880 376 -101 19 -516 28 -624 13z m560
-488 c292 -60 556 -197 759 -393 272 -261 416 -594 416 -958 0 -154 -17 -265
-61 -399 -157 -482 -568 -836 -1102 -952 -124 -26 -354 -36 -484 -19 -566 71
-1036 433 -1214 935 -65 183 -89 378 -70 555 70 653 582 1153 1280 1250 107
15 361 5 476 -19z"/>
<path d="M32480 4205 c-219 -30 -410 -90 -625 -195 -164 -80 -282 -156 -418
-270 -332 -278 -573 -721 -627 -1153 -17 -137 -7 -432 18 -557 80 -383 301
-764 590 -1015 220 -192 521 -353 805 -429 358 -97 769 -94 1127 9 734 211
1265 795 1381 1520 19 118 17 418 -4 535 -64 352 -222 674 -463 939 -290 319
-756 556 -1211 616 -139 18 -439 18 -573 0z m580 -484 c581 -119 1012 -515
1147 -1058 24 -96 27 -127 28 -283 0 -190 -9 -258 -57 -405 -63 -195 -168
-372 -312 -523 -123 -128 -235 -210 -401 -292 -153 -76 -245 -109 -399 -142
-147 -32 -446 -32 -592 0 -307 66 -570 206 -774 411 -119 120 -188 215 -259
358 -190 384 -186 801 11 1186 211 411 636 698 1133 766 105 15 363 5 475 -18z"/>
<path d="M15405 4090 c-458 -96 -810 -453 -911 -920 -13 -61 -17 -164 -21
-552 l-5 -478 1061 0 1061 0 0 -202 c0 -231 -11 -298 -63 -410 -89 -190 -260
-336 -462 -395 -54 -16 -134 -18 -827 -21 l-768 -3 0 -240 0 -240 798 4 c678
3 807 6 867 19 412 93 737 379 873 768 57 162 62 226 62 737 l0 463 -1060 0
-1060 0 0 163 c1 303 35 424 166 588 91 114 224 200 373 242 74 20 97 21 829
25 l752 3 0 235 0 234 -787 -1 c-733 0 -794 -2 -878 -19z"/>
<path d="M18480 3875 l0 -235 1225 0 1225 0 0 235 0 235 -1225 0 -1225 0 0
-235z"/>
<path d="M27753 4095 c-298 -54 -589 -245 -755 -495 -70 -106 -97 -161 -137
-274 -57 -161 -61 -211 -61 -722 l0 -464 1058 -2 1057 -3 3 -140 c7 -339 -46
-505 -218 -675 -86 -86 -171 -139 -285 -178 l-80 -27 -767 -3 -768 -3 0 -239
0 -240 743 0 c759 0 838 3 983 40 233 60 484 229 634 428 60 80 143 237 176
335 50 145 54 204 54 713 l0 474 -1055 0 -1055 0 0 203 c0 234 10 288 72 417
34 71 57 101 137 180 108 108 188 156 318 192 76 22 94 22 831 26 l752 3 0
235 0 234 -782 -1 c-597 -1 -800 -4 -855 -14z"/>
<path d="M18480 2380 l0 -240 1225 0 1225 0 0 240 0 240 -1225 0 -1225 0 0
-240z"/>
<path d="M18480 865 l0 -235 1225 0 1225 0 0 235 0 235 -1225 0 -1225 0 0
-235z"/>
</g>
</svg>
